<svg width="131" height="10" viewBox="0 0 131 10" fill="none" xmlns="http://www.w3.org/2000/svg">
<path d="M5.25789 3.20836H5.23269L4.22525 6.19364H6.25258L5.25789 3.20836ZM3.55353 8.05948L2.90699 9.68887H0.319336L3.92688 0.310511H6.58799L10.1206 9.68887H7.52136L6.91155 8.05948H3.55353Z" fill="#231F20"/>
<path d="M18.1635 0.310511H21.1858L17.4547 4.75093L21.5212 9.68887H18.3619L15.2152 5.62147H15.1909V9.68887H12.7529V0.310511H15.1909V4.17906H15.2152L18.1635 0.310511Z" fill="#231F20"/>
<path d="M27.7862 9.68887H25.3488V2.37515H23.333V0.310511H29.8008V2.37515H27.7862V9.68887Z" fill="#231F20"/>
<path d="M35.2583 9.68887H32.8203V0.310511H35.2583V9.68887Z" fill="#231F20"/>
<path d="M42.9167 6.00697L45.1931 0.310511H47.8421L43.8369 9.68887H41.9468L38.0039 0.310511H40.6532L42.9167 6.00697Z" fill="#231F20"/>
<path d="M60.8817 0.310511H61.6776L57.0881 4.82529L61.9639 9.68887H61.1803L56.6774 5.21079L56.4285 5.45969V9.68887H55.832V0.310511H56.4285V4.6887L60.8817 0.310511Z" fill="#231F20"/>
<path d="M64.8093 4.9998C64.8093 7.31307 66.7368 9.25327 69.0755 9.25327C71.4015 9.25327 73.3418 7.30092 73.3418 4.9998C73.3418 2.68625 71.4015 0.745715 69.0755 0.745715C66.7368 0.745715 64.8093 2.68625 64.8093 4.9998ZM73.9388 4.9998C73.9388 7.63694 71.7127 9.8133 69.0755 9.8133C66.4387 9.8133 64.2119 7.63694 64.2119 4.9998C64.2119 2.36298 66.4262 0.186625 69.0755 0.186625C71.7127 0.186625 73.9388 2.36298 73.9388 4.9998Z" fill="#231F20"/>
<path d="M85.1146 1.92738H85.0898L81.8184 9.99998L78.5594 1.92738H78.5345L76.9296 9.68885H76.3584L78.3729 -2.28882e-05L81.8184 8.53238L85.2763 -2.28882e-05L87.2912 9.68885H86.7185L85.1146 1.92738Z" fill="#231F20"/>
<path d="M98.1316 1.92738H98.1068L94.8354 9.99998L91.5764 1.92738H91.5515L89.9469 9.68885H89.375L91.3899 -2.28882e-05L94.8354 8.53238L98.2933 -2.28882e-05L100.308 9.68885H99.7355L98.1316 1.92738Z" fill="#231F20"/>
<path d="M108.971 0.310487H109.569V6.15629C109.569 7.11395 109.569 7.93532 108.934 8.71905C108.3 9.43995 107.33 9.8133 106.385 9.8133C105.439 9.8133 104.469 9.43995 103.835 8.71905C103.2 7.93532 103.2 7.11395 103.2 6.15629V0.310487H103.798V5.98266C103.798 6.82801 103.798 7.72345 104.283 8.3457C104.743 8.94306 105.663 9.25327 106.385 9.25327C107.106 9.25327 108.026 8.94306 108.487 8.3457C108.971 7.72345 108.971 6.82801 108.971 5.98266V0.310487Z" fill="#231F20"/>
<path d="M121.828 9.99998L113.954 1.62899V9.68885H113.358V0.186625L121.232 8.49534V0.310488H121.828V9.99998Z" fill="#231F20"/>
<path d="M126.301 0.870535V4.27832H130.082V4.83835H126.301V9.12885H130.181V9.68887H125.704V0.310511H130.181V0.870535H126.301Z" fill="#231F20"/>
</svg>
