<svg width="26" height="22" viewBox="0 0 26 22" fill="none" xmlns="http://www.w3.org/2000/svg">
<path d="M8.12841 12.0389H0.0322266V11.7025H8.12841V12.0389Z" fill="#393536"/>
<path d="M23.4649 12.2071H15.4258V11.8706H23.4649V12.2071Z" fill="#393536"/>
<path d="M17.089 16.2447H13.0693V15.9083H17.089V16.2447Z" fill="#231F20"/>
<path d="M14.1766 12.2071H8.58984V11.8706H14.1766V12.2071Z" fill="#231F20"/>
<path d="M14.1765 14.0578H3.00293V13.7213H14.1765V14.0578Z" fill="#393536"/>
<path d="M25.3199 14.0578H14.1465V13.7213H25.3199V14.0578Z" fill="#393536"/>
<path d="M11.1735 16.2447H0V15.9083H11.1735V16.2447Z" fill="#393536"/>
<mask id="mask0_9730_45079" style="mask-type:luminance" maskUnits="userSpaceOnUse" x="5" y="0" width="13" height="22">
<path d="M11.8013 0.967848C8.62495 0.967848 6.02499 3.48226 5.8877 6.6255L5.90391 7.37393C6.00821 8.65459 6.59993 10.0538 7.45175 11.0177L11.7196 21.0321L15.9434 11.1126C17.0897 9.98944 17.72 8.49094 17.72 6.8866C17.72 3.6232 15.0646 0.967848 11.8013 0.967848Z" fill="white"/>
</mask>
<g mask="url(#mask0_9730_45079)">
<path d="M11.7171 21.0548V21.0266H11.6888V20.9701H11.6606V20.9136H11.6323V20.8288H11.6041V20.7723H11.5758V20.7158H11.5476V20.6311H11.5193V20.5746H11.4911V20.5181H11.4628V20.4333H11.4346V20.3768H11.4063V20.3203H11.3781V20.2356H11.3498V20.1791H11.3216V20.1226H11.2933V20.0378H11.2651V19.9813H11.2368V19.9248H11.2085V19.8401H11.1803V19.7836H11.152V19.7271H11.1238V19.6423H11.0955V19.5858H11.0673V19.5011H11.039V19.4445H11.0108V19.388H10.9825V19.3033H10.9543V19.2468H10.926V19.1903H10.8978V19.1055H10.8695V19.049H10.8413V18.9925H10.813V18.9078H10.7848V18.8513H10.7565V18.7948H10.7283V18.71H10.7V18.6535H10.6718V18.597H10.6435V18.5123H10.6153V18.4558H10.587V18.3993H10.5588V18.3145H10.5305V18.258H10.5023V18.2015H10.474V18.1168H10.4458V18.0603H10.4175V18.0038H10.3893V17.919H10.361V17.8625H10.3328V17.7778H10.3045V17.7212H10.2763V17.6647H10.248V17.58H10.2198V17.5235H10.1915V17.467H10.1633V17.3822H10.135V17.3257H10.1068V17.2692H10.0785V17.1845H10.0503V17.128H10.022V17.0715H9.99376V16.9867H9.96551V16.9302H9.93726V16.8737H9.90901V16.789H9.88076V16.7325H9.85251V16.676H9.82426V16.5912H9.79601V16.5347H9.76776V16.4782H9.73951V16.3935H9.71126V16.337H9.683V16.2805H9.65475V16.1957H9.6265V16.1392H9.59825V16.0544H9.57V15.9979H9.54175V15.9414H9.5135V15.8567H9.48525V15.8002H9.457V15.7437H9.42875V15.6589H9.4005V15.6024H9.37225V15.5459H9.34399V15.4612H9.31574V15.4047H9.28749V15.3482H9.25924V15.2634H9.23099V15.2069H9.20274V15.1504H9.17449V15.0657H9.14624V15.0092H9.11799V14.9527H9.08974V14.8679H9.06149V14.8114H9.03324V14.7549H9.00498V14.6702H8.97673V14.6137H8.94848V14.5572H8.92023V14.4724H8.89198V14.4159H8.86373V14.3311H8.83548V14.2746H8.80723V14.2181H8.77898V14.1334H8.75073V14.0769H8.72248V14.0204H8.69422V13.9356H8.66597V13.8791H8.63772V13.8226H8.60947V13.7379H8.58122V13.6814H8.55297V13.6249H8.52472V13.5401H8.49647V13.4836H8.46822V13.4271H8.43997V13.3424H8.41172V13.2859H8.38347V13.2294H8.35521V13.1446H8.32696V13.0881H8.29871V13.0316H8.27046V12.9469H8.24221V12.8904H8.21396V12.8056H8.18571V12.7491H8.15746V12.6926H8.12921V12.6078H8.10096V12.5513H8.07271V12.4948H8.04446V12.4101H8.0162V12.3536H7.98795V12.2971H7.9597V12.2123H7.93145V12.1558H7.9032V12.0993H7.87495V12.0146H7.8467V11.9581H7.81845V11.9016H7.7902V11.8168H7.76195V11.7603H7.7337V11.7038H7.70545V11.6191H7.67719V11.5626H7.64894V11.5061H7.62069V11.4213H7.59244V11.3648H7.56419V11.3083H7.53594V11.2236H7.50769V11.1671H7.47944V11.0823H7.45119V11.0258H7.42294V10.9975H7.39469V10.9693H7.36644V10.941H7.33818V10.8845H7.30993V10.8563H7.28168V10.828H7.25343V10.7998H7.22518V10.7433H7.19693V10.715H7.16868V10.6868H7.14043V10.6303H7.11218V10.602H7.08393V10.5738H7.05568V10.5173H7.02743V10.489H6.99917V10.4325H6.97092V10.4043H6.94267V10.3478H6.91442V10.3195H6.88617V10.263H6.85792V10.2348H6.82967V10.1783H6.80142V10.1218H6.77317V10.0653H6.74492V10.0088H6.71667V9.98052H6.68842V9.92402H6.66016V9.86751H6.63191V9.81101H6.60366V9.75451H6.57541V9.69801H6.54716V9.64151H6.51891V9.585H6.49066V9.5285H6.46241V9.472H6.43416V9.4155H6.40591V9.359H6.37766V9.27425H6.3494V9.18949H6.32115V9.13299H6.2929V9.04824H6.26465V8.99174H6.2364V8.90699H6.20815V8.82223H6.1799V8.73748H6.15165V8.62448H6.1234V8.53972H6.09515V8.45497H6.0669V8.34197H6.03865V8.20071H6.01039V8.08771H5.98214V7.94646H5.95389V7.77695H5.92564V7.5792H5.89739V7.07068H5.86914V6.44916H5.89739V6.16665H5.92564V5.9689H5.95389V5.82764H5.98214V5.68639H6.01039V5.51688H6.03865V5.40388H6.0669V5.31913H6.09515V5.23438H6.1234V5.12137H6.15165V5.03662H6.1799V4.92362H6.20815V4.86712H6.2364V4.78236H6.26465V4.72586H6.2929V4.64111H6.32115V4.58461H6.3494V4.49985H6.37766V4.44335H6.40591V4.38685H6.43416V4.33035H6.46241V4.27385H6.49066V4.21735H6.51891V4.16084H6.54716V4.10434H6.57541V4.04784H6.60366V3.99134H6.63191V3.93484H6.66016V3.90659H6.68842V3.85008H6.71667V3.79358H6.74492V3.76533H6.77317V3.70883H6.80142V3.68058H6.82967V3.62408H6.85792V3.59583H6.88617V3.53932H6.91442V3.51107H6.94267V3.45457H6.97092V3.42632H6.99917V3.36982H7.02743V3.34157H7.05568V3.31332H7.08393V3.28507H7.11218V3.22857H7.14043V3.20031H7.16868V3.17206H7.19693V3.14381H7.22518V3.08731H7.25343V3.05906H7.28168V3.03081H7.30993V3.00256H7.33818V2.97431H7.36644V2.9178H7.39469V2.88955H7.42294V2.86131H7.45119V2.83305H7.47944V2.8048H7.50769V2.77655H7.53594V2.7483H7.56419V2.72005H7.59244V2.6918H7.62069V2.66355H7.64894V2.6353H7.67719V2.60705H7.70545V2.5788H7.7337V2.55054H7.76195V2.52229H7.7902V2.49404H7.8467V2.46579H7.87495V2.43754H7.9032V2.40929H7.93145V2.38104H7.9597V2.35279H7.98795V2.32454H8.0162V2.29629H8.07271V2.26804H8.10096V2.23979H8.12921V2.21153H8.15746V2.18328H8.21396V2.15503H8.24221V2.12678H8.27046V2.09853H8.32696V2.07028H8.35521V2.04203H8.41172V2.01378H8.43997V1.98553H8.46822V1.95728H8.52472V1.92903H8.55297V1.90078H8.60947V1.87253H8.66597V1.84427H8.69422V1.81602H8.75073V1.78777H8.80723V1.75952H8.83548V1.73127H8.89198V1.70302H8.94848V1.67477H8.97673V1.64652H9.03324V1.61827H9.08974V1.59002H9.14624V1.56177H9.23099V1.53351H9.28749V1.50526H9.34399V1.47701H9.4005V1.44876H9.457V1.42051H9.5135V1.39226H9.59825V1.36401H9.683V1.33576H9.73951V1.30751H9.82426V1.27926H9.90901V1.25101H9.99376V1.22276H10.0785V1.1945H10.1915V1.16625H10.3045V1.138H10.4175V1.10975H10.5023V1.0815H10.6435V1.05325H10.813V1.025H11.0108V0.996748H11.2085V0.968498H12.3951V0.996748H12.5928V1.025H12.7906V1.05325H12.9601V1.0815H13.1014V1.10975H13.1861V1.138H13.2991V1.16625H13.4121V1.1945H13.5251V1.22276H13.6099V1.25101H13.6946V1.27926H13.7794V1.30751H13.8359V1.33576H13.9206V1.36401H14.0054V1.39226H14.0901V1.42051H14.1466V1.44876H14.2031V1.47701H14.2596V1.50526H14.3161V1.53351H14.3726V1.56177H14.4291V1.59002H14.4856V1.61827H14.5704V1.64652H14.6269V1.67477H14.6552V1.70302H14.7117V1.73127H14.7682V1.75952H14.7964V1.78777H14.8529V1.81602H14.9094V1.84427H14.9377V1.87253H14.9942V1.90078H15.0507V1.92903H15.0789V1.95728H15.1354V1.98553H15.1637V2.01378H15.1919V2.04203H15.2484V2.07028H15.2767V2.09853H15.3049V2.12678H15.3614V2.15503H15.3897V2.18328H15.4179V2.21153H15.4744V2.23979H15.5027V2.26804H15.5309V2.29629H15.5874V2.32454H15.6157V2.35279H15.6439V2.38104H15.6722V2.40929H15.7004V2.43754H15.7287V2.46579H15.7569V2.49404H15.7852V2.52229H15.8417V2.55054H15.8699V2.5788H15.8982V2.60705H15.9264V2.6353H15.9547V2.66355H15.9829V2.6918H16.0112V2.72005H16.0394V2.7483H16.0677V2.77655H16.0959V2.8048H16.1242V2.83305H16.1524V2.86131H16.1807V2.9178H16.2089V2.94606H16.2372V2.97431H16.2655V3.00256H16.2937V3.03081H16.322V3.05906H16.3502V3.08731H16.3785V3.11556H16.4067V3.17206H16.435V3.20031H16.4632V3.22857H16.4915V3.28507H16.5197V3.31332H16.548V3.34157H16.5762V3.39807H16.6045V3.42632H16.6327V3.45457H16.661V3.51107H16.6892V3.53932H16.7175V3.59583H16.7457V3.62408H16.774V3.68058H16.8022V3.70883H16.8305V3.76533H16.8587V3.82183H16.887V3.85008H16.9152V3.90659H16.9435V3.96309H16.9717V3.99134H17V4.04784H17.0282V4.10434H17.0565V4.16084H17.0847V4.21735H17.113V4.27385H17.1412V4.33035H17.1695V4.38685H17.1977V4.44335H17.226V4.49985H17.2542V4.58461H17.2825V4.64111H17.3107V4.72586H17.339V4.81061H17.3672V4.86712H17.3955V4.95187H17.4237V5.03662H17.452V5.12137H17.4802V5.20612H17.5085V5.31913H17.5367V5.43213H17.565V5.54513H17.5932V5.65814H17.6215V5.82764H17.6497V5.99715H17.678V6.1949H17.7062V6.50566H17.7345V7.26844H17.7062V7.5792H17.678V7.77695H17.6497V7.94646H17.6215V8.11596H17.5932V8.22896H17.565V8.34197H17.5367V8.45497H17.5085V8.56798H17.4802V8.68098H17.452V8.73748H17.4237V8.82223H17.3955V8.90699H17.3672V8.99174H17.339V9.04824H17.3107V9.13299H17.2825V9.21774H17.2542V9.27425H17.226V9.33075H17.1977V9.38725H17.1695V9.44375H17.1412V9.50025H17.113V9.55675H17.0847V9.61326H17.0565V9.66976H17.0282V9.72626H17V9.78276H16.9717V9.83926H16.9435V9.86751H16.9152V9.92402H16.887V9.95227H16.8587V10.0088H16.8305V10.0653H16.8022V10.0935H16.774V10.15H16.7457V10.2065H16.7175V10.2348H16.6892V10.263H16.661V10.3195H16.6327V10.3478H16.6045V10.376H16.5762V10.4325H16.548V10.4608H16.5197V10.489H16.4915V10.5455H16.4632V10.5738H16.435V10.602H16.4067V10.6585H16.3785V10.6868H16.3502V10.715H16.322V10.7433H16.2937V10.7715H16.2655V10.7998H16.2372V10.8563H16.2089V10.8845H16.1807V10.9128H16.1524V10.941H16.1242V10.9693H16.0959V10.9975H16.0677V11.0258H16.0394V11.054H16.0112V11.0823H15.9829V11.1106H15.9547V11.1671H15.9264V11.2236H15.8982V11.3083H15.8699V11.3648H15.8417V11.4213H15.8134V11.5061H15.7852V11.5626H15.7569V11.6191H15.7287V11.7038H15.7004V11.7603H15.6722V11.8168H15.6439V11.9016H15.6157V11.9581H15.5874V12.0428H15.5592V12.0993H15.5309V12.1558H15.5027V12.2406H15.4744V12.2971H15.4462V12.3536H15.4179V12.4383H15.3897V12.4948H15.3614V12.5513H15.3332V12.6361H15.3049V12.6926H15.2767V12.7491H15.2484V12.8339H15.2202V12.8904H15.1919V12.9469H15.1637V13.0316H15.1354V13.0881H15.1072V13.1446H15.0789V13.2294H15.0507V13.2859H15.0224V13.3424H14.9942V13.4271H14.9659V13.4836H14.9377V13.5684H14.9094V13.6249H14.8812V13.6814H14.8529V13.7661H14.8247V13.8226H14.7964V13.8791H14.7682V13.9639H14.7399V14.0204H14.7117V14.0769H14.6834V14.1616H14.6552V14.2181H14.6269V14.2746H14.5987V14.3594H14.5704V14.4159H14.5421V14.4724H14.5139V14.5572H14.4856V14.6137H14.4574V14.6702H14.4291V14.7549H14.4009V14.8114H14.3726V14.8679H14.3444V14.9527H14.3161V15.0092H14.2879V15.0939H14.2596V15.1504H14.2314V15.2069H14.2031V15.2917H14.1749V15.3482H14.1466V15.4047H14.1184V15.4894H14.0901V15.5459H14.0619V15.6024H14.0336V15.6872H14.0054V15.7437H13.9771V15.8002H13.9489V15.8849H13.9206V15.9414H13.8924V15.9979H13.8641V16.0827H13.8359V16.1392H13.8076V16.1957H13.7794V16.2805H13.7511V16.337H13.7229V16.4217H13.6946V16.4782H13.6664V16.5347H13.6381V16.6195H13.6099V16.676H13.5816V16.7325H13.5534V16.8172H13.5251V16.8737H13.4969V16.9302H13.4686V17.015H13.4404V17.0715H13.4121V17.128H13.3839V17.2127H13.3556V17.2692H13.3274V17.3257H13.2991V17.4105H13.2709V17.467H13.2426V17.5235H13.2144V17.6082H13.1861V17.6647H13.1579V17.7212H13.1296V17.806H13.1014V17.8625H13.0731V17.9473H13.0449V18.0038H13.0166V18.0603H12.9884V18.145H12.9601V18.2015H12.9319V18.258H12.9036V18.3428H12.8753V18.3993H12.8471V18.4558H12.8188V18.5405H12.7906V18.597H12.7623V18.6535H12.7341V18.7383H12.7058V18.7948H12.6776V18.8513H12.6493V18.936H12.6211V18.9925H12.5928V19.049H12.5646V19.1338H12.5363V19.1903H12.5081V19.2468H12.4798V19.3315H12.4516V19.388H12.4233V19.4728H12.3951V19.5293H12.3668V19.5858H12.3386V19.6706H12.3103V19.7271H12.2821V19.7836H12.2538V19.8683H12.2256V19.9248H12.1973V19.9813H12.1691V20.0661H12.1408V20.1226H12.1126V20.1791H12.0843V20.2638H12.0561V20.3203H12.0278V20.3768H11.9996V20.4616H11.9713V20.5181H11.9431V20.5746H11.9148V20.6593H11.8866V20.7158H11.8583V20.8006H11.8301V20.8571H11.8018V20.9136H11.7736V20.9983H11.7453V21.0548" fill="url(#paint0_linear_9730_45079)"/>
<path d="M14.1066 7.48667C14.1066 8.80517 13.0378 9.87395 11.7195 9.87395C10.4009 9.87395 9.33203 8.80517 9.33203 7.48667C9.33203 6.16826 10.4009 5.09925 11.7195 5.09925C13.0378 5.09925 14.1066 6.16826 14.1066 7.48667Z" fill="white"/>
<path d="M11.7197 5.36049C10.5473 5.36049 9.59359 6.31418 9.59359 7.48659C9.59359 8.659 10.5473 9.61266 11.7197 9.61266C12.8921 9.61266 13.8458 8.659 13.8458 7.48659C13.8458 6.31418 12.8921 5.36049 11.7197 5.36049ZM11.7197 10.135C10.2593 10.135 9.07129 8.94679 9.07129 7.48659C9.07129 6.02625 10.2593 4.83819 11.7197 4.83819C13.1799 4.83819 14.3681 6.02625 14.3681 7.48659C14.3681 8.94679 13.1799 10.135 11.7197 10.135Z" fill="white"/>
<path d="M11.5642 7.84393C11.5642 7.7722 11.6225 7.71395 11.6942 7.71395C11.7658 7.71395 11.8241 7.7722 11.8241 7.84393C11.8241 7.91554 11.7658 7.97394 11.6942 7.97394C11.6225 7.97394 11.5642 7.91554 11.5642 7.84393ZM10.5445 6.79611C10.5125 6.828 10.5125 6.87987 10.5445 6.91188L11.4088 7.77618C11.4035 7.79791 11.4005 7.82054 11.4005 7.84393C11.4005 8.00592 11.5322 8.13771 11.6942 8.13771C11.8561 8.13771 11.9879 8.00592 11.9879 7.84393C11.9879 7.81017 11.9818 7.77794 11.9713 7.74771L13.3694 6.34963C13.4014 6.31762 13.4014 6.26598 13.3694 6.23397C13.3374 6.20185 13.2856 6.20185 13.2536 6.23397L11.8747 7.61284C11.8247 7.57379 11.7623 7.55029 11.6942 7.55029C11.6167 7.55029 11.5464 7.58063 11.4939 7.62973L10.6603 6.79611C10.6283 6.7641 10.5764 6.7641 10.5445 6.79611Z" fill="#231F20"/>
</g>
<defs>
<linearGradient id="paint0_linear_9730_45079" x1="11.804" y1="19.394" x2="11.804" y2="0.848772" gradientUnits="userSpaceOnUse">
<stop stop-color="#782F9A"/>
<stop offset="0.675743" stop-color="#293D9B"/>
<stop offset="0.722772" stop-color="#293D9B"/>
<stop offset="1" stop-color="#293D9B"/>
</linearGradient>
</defs>
</svg>
